<?xml version="1.0"?>
<svg xmlns="http://www.w3.org/2000/svg" viewBox="0 0 16 16">
    <path style="line-height:normal;text-indent:0;text-align:start;text-decoration-line:none;text-decoration-style:solid;text-decoration-color:#000;text-transform:none;block-progression:tb;isolation:auto;mix-blend-mode:normal" d="M 3.5 1 C 3.224 1 3 1.224 3 1.5 L 3 2 L 12 2 L 12 1.5 C 12 1.224 11.776 1 11.5 1 L 3.5 1 z M 2.5 3 C 2.224 3 2 3.224 2 3.5 L 2 4 L 13 4 L 13 3.5 C 13 3.224 12.776 3 12.5 3 L 2.5 3 z M 1.5 5 A 0.50005 0.50005 0 0 0 1 5.5 L 1 14.5 A 0.50005 0.50005 0 0 0 1.5 15 L 13.5 15 A 0.50005 0.50005 0 0 0 14 14.5 L 14 5.5 A 0.50005 0.50005 0 0 0 13.5 5 L 1.5 5 z M 2 6 L 13 6 L 13 14 L 2 14 L 2 6 z M 6 7.5 L 6 12.5 L 10 10 L 6 7.5 z" font-weight="400" font-family="sans-serif" white-space="normal" overflow="visible"/>
</svg>
